# xmcd CD database file
#
# Track frame offsets:
#	225
#	9231
#	23069
#	35802
#	48452
#	58971
#	73666
#	89222
#	99179
#	112274
#	125002
#	142098
#	152512
#	165312
#
# Disc length: 2357 seconds
#
# Revision: 1
# Processed by: cddbd v1.5.1PL0 Copyright (c) Steve Scherf et al.
# Submitted via: CDex 1.51
#
DISCID=c509320e
DTITLE=Jonny Hill - Jonny Hill - Vol. 03
DYEAR=1900
DGENRE=Country
TTITLE0=Ein Ring aus Feuer (Ring of fire)
TTITLE1=Einmal noch nach Haus
TTITLE2=Green green grass of home
TTITLE3=Fünfhundert Meilen von zu Haus (Fivehundred  Miles from home)
TTITLE4=König der Landstrasse (King of the road)
TTITLE5=Nur noch einmal nach haus (Detroit city)
TTITLE6=Lucille
TTITLE7=Suanna (Oh Susanna)
TTITLE8=Mexican Joe (Südlich der Grenze)
TTITLE9=Kann Liebe alles verzeih'n (Some broken hearts never mend)
TTITLE10=Wo der Mond versinkt (Mary Ann regrets)
TTITLE11=Heute Nacht da brauche ich dich (Help me make it through the night)
TTITLE12=Clementine (My darling Clementine)
TTITLE13=Oh warum nicht (Oh lonesome me)
EXTD=
EXTT0=
EXTT1=
EXTT2=
EXTT3=
EXTT4=
EXTT5=
EXTT6=
EXTT7=
EXTT8=
EXTT9=
EXTT10=
EXTT11=
EXTT12=
EXTT13=
PLAYORDER=
